<svg width="301" height="80" viewBox="0 0 301 80" fill="none" xmlns="http://www.w3.org/2000/svg">
<path d="M38 0C15.9086 0 -2 17.9086 -2 40H78C78 17.9086 60.0914 0 38 0Z" fill="#C4D82E"/>
<path d="M189 0C166.909 0 149 17.9086 149 40H229C229 17.9086 211.091 0 189 0Z" fill="#C4D82E"/>
<path d="M113.556 80C93.9188 80 78 62.0914 78 40H149.111C149.111 62.0914 133.192 80 113.556 80Z" fill="#304FBF"/>
<path d="M264.556 80C244.919 80 229 62.0914 229 40H300.111C300.111 62.0914 284.192 80 264.556 80Z" fill="#304FBF"/>
</svg>
