<svg width="437" height="489" viewBox="0 0 437 489" fill="none" xmlns="http://www.w3.org/2000/svg">
<g clip-path="url(#clip0_2_5449)">
<path fill-rule="evenodd" clip-rule="evenodd" d="M-17.4142 217.336C-17.4142 88.2774 88.1194 -16.354 218.313 -16.354C348.506 -16.354 454.04 88.2774 454.04 217.336C454.04 346.394 348.506 451.025 218.313 451.025C88.1194 451.025 -17.4142 346.394 -17.4142 217.336ZM218.313 -17.5595C87.4635 -17.5595 -18.6198 87.6017 -18.6198 217.336C-18.6198 347.07 87.4635 452.231 218.313 452.231C349.162 452.231 455.245 347.07 455.245 217.336C455.245 87.6017 349.162 -17.5595 218.313 -17.5595ZM218.313 0.0696526C97.2692 0.0696526 -0.847582 97.3476 -0.847582 217.336C-0.847582 337.324 97.2692 434.602 218.313 434.602C339.356 434.602 437.473 337.324 437.473 217.336C437.473 97.3476 339.356 0.0696526 218.313 0.0696526ZM-1.96839 217.336C-1.96839 96.7194 96.6594 -1.05116 218.313 -1.05116C339.966 -1.05116 438.594 96.7194 438.594 217.336C438.594 337.952 339.966 435.723 218.313 435.723C96.6594 435.723 -1.96839 337.952 -1.96839 217.336ZM0.512173 217.352C0.512173 98.1112 98.0173 1.44025 218.305 1.44025C338.594 1.44025 436.099 98.1112 436.099 217.352C436.099 336.592 338.594 433.263 218.305 433.263C98.0173 433.263 0.512173 336.592 0.512173 217.352ZM218.305 0.407154C97.4552 0.407154 -0.520924 97.5323 -0.520924 217.352C-0.520924 337.171 97.4552 434.296 218.305 434.296C339.156 434.296 437.132 337.171 437.132 217.352C437.132 97.5323 339.156 0.407154 218.305 0.407154ZM16.3032 217.336C16.3032 106.737 106.742 17.0721 218.313 17.0721C329.884 17.0721 420.322 106.737 420.322 217.336C420.322 327.934 329.884 417.599 218.313 417.599C106.742 417.599 16.3032 327.934 16.3032 217.336ZM218.313 16.0391C106.18 16.0391 15.2701 106.158 15.2701 217.336C15.2701 328.513 106.18 418.632 218.313 418.632C330.446 418.632 421.355 328.513 421.355 217.336C421.355 106.158 330.446 16.0391 218.313 16.0391ZM218.31 32.7199C115.456 32.7199 32.0844 115.379 32.0844 217.336C32.0844 319.292 115.456 401.951 218.31 401.951C321.164 401.951 404.535 319.292 404.535 217.336C404.535 115.379 321.164 32.7199 218.31 32.7199ZM31.0513 217.336C31.0513 114.8 114.894 31.6868 218.31 31.6868C321.726 31.6868 405.569 114.8 405.569 217.336C405.569 319.871 321.726 402.984 218.31 402.984C114.894 402.984 31.0513 319.871 31.0513 217.336ZM47.8699 217.336C47.8699 124.022 124.175 48.3682 218.312 48.3682C312.448 48.3682 388.753 124.022 388.753 217.336C388.753 310.65 312.448 386.304 218.312 386.304C124.175 386.304 47.8699 310.65 47.8699 217.336ZM218.312 47.3351C123.613 47.3351 46.8368 123.443 46.8368 217.336C46.8368 311.229 123.613 387.337 218.312 387.337C313.01 387.337 389.786 311.229 389.786 217.336C389.786 123.443 313.01 47.3351 218.312 47.3351ZM218.312 64.0158C132.892 64.0158 63.6539 132.664 63.6539 217.336C63.6539 302.008 132.892 370.656 218.312 370.656C303.731 370.656 372.969 302.008 372.969 217.336C372.969 132.664 303.731 64.0158 218.312 64.0158ZM62.6208 217.336C62.6208 132.085 132.33 62.9827 218.312 62.9827C304.293 62.9827 374.003 132.085 374.003 217.336C374.003 302.587 304.293 371.689 218.312 371.689C132.33 371.689 62.6208 302.587 62.6208 217.336ZM79.3347 217.333C79.3347 141.247 141.552 79.5594 218.311 79.5594C295.07 79.5594 357.287 141.247 357.287 217.333C357.287 293.419 295.07 355.107 218.311 355.107C141.552 355.107 79.3347 293.419 79.3347 217.333ZM218.311 78.5263C140.99 78.5263 78.3017 140.668 78.3017 217.333C78.3017 293.998 140.99 356.14 218.311 356.14C295.632 356.14 358.32 293.998 358.32 217.333C358.32 140.668 295.632 78.5263 218.311 78.5263ZM218.312 95.2092C150.271 95.2092 95.1197 149.891 95.1197 217.335C95.1197 284.779 150.271 339.461 218.312 339.461C286.354 339.461 341.504 284.779 341.504 217.335C341.504 149.891 286.354 95.2092 218.312 95.2092ZM94.0866 217.335C94.0866 149.312 149.708 94.1761 218.312 94.1761C286.916 94.1761 342.538 149.312 342.538 217.335C342.538 285.358 286.916 340.494 218.312 340.494C149.708 340.494 94.0866 285.358 94.0866 217.335ZM110.902 217.335C110.902 158.533 158.987 110.857 218.311 110.857C277.635 110.857 325.719 158.533 325.719 217.335C325.719 276.137 277.635 323.813 218.311 323.813C158.987 323.813 110.902 276.137 110.902 217.335ZM218.311 109.824C158.425 109.824 109.869 157.954 109.869 217.335C109.869 276.716 158.425 324.846 218.311 324.846C278.197 324.846 326.752 276.716 326.752 217.335C326.752 157.954 278.197 109.824 218.311 109.824ZM218.31 126.505C167.703 126.505 126.685 167.175 126.685 217.335C126.685 267.495 167.703 308.165 218.31 308.165C268.917 308.165 309.934 267.495 309.934 217.335C309.934 167.175 268.917 126.505 218.31 126.505ZM125.652 217.335C125.652 166.596 167.141 125.472 218.31 125.472C269.479 125.472 310.967 166.596 310.967 217.335C310.967 268.074 269.479 309.198 218.31 309.198C167.141 309.198 125.652 268.074 125.652 217.335ZM142.47 217.335C142.47 175.818 176.421 142.153 218.311 142.153C260.201 142.153 294.152 175.818 294.152 217.335C294.152 258.853 260.201 292.518 218.311 292.518C176.421 292.518 142.47 258.853 142.47 217.335ZM218.311 141.12C175.859 141.12 141.437 175.239 141.437 217.335C141.437 259.432 175.859 293.551 218.311 293.551C260.763 293.551 295.185 259.432 295.185 217.335C295.185 175.239 260.763 141.12 218.311 141.12ZM217.972 157.805C184.8 157.997 158.073 184.812 158.267 217.688C158.461 250.564 185.503 277.067 218.675 276.874C251.848 276.681 278.575 249.867 278.381 216.991C278.186 184.115 251.145 157.612 217.972 157.805ZM157.234 217.694C157.036 184.239 184.231 156.968 217.966 156.772C251.701 156.576 279.216 183.53 279.414 216.985C279.611 250.44 252.416 277.711 218.681 277.907C184.947 278.103 157.431 251.149 157.234 217.694ZM174.01 217.77C173.757 193.538 193.368 173.684 217.821 173.434C242.274 173.183 262.294 192.631 262.546 216.863C262.799 241.094 243.188 260.948 218.735 261.199C194.282 261.449 174.262 242.001 174.01 217.77ZM217.81 172.401C192.795 172.657 172.718 192.97 172.977 217.78C173.235 242.591 193.731 262.488 218.746 262.232C243.761 261.975 263.838 241.662 263.579 216.852C263.321 192.042 242.825 172.145 217.81 172.401ZM217.893 189.104C202.157 189.339 189.599 202.175 189.836 217.765C190.072 233.355 203.013 245.811 218.75 245.576C234.487 245.341 247.044 232.505 246.808 216.915C246.571 201.325 233.63 188.869 217.893 189.104ZM188.803 217.78C188.557 201.611 201.579 188.314 217.878 188.071C234.176 187.828 247.595 200.731 247.841 216.9C248.086 233.069 235.064 246.366 218.766 246.609C202.467 246.852 189.048 233.949 188.803 217.78ZM205.611 217.586C205.471 210.637 211.04 204.884 218.06 204.745C225.08 204.606 230.876 210.134 231.016 217.082C231.157 224.03 225.587 229.783 218.568 229.922C211.548 230.062 205.752 224.534 205.611 217.586ZM218.039 203.712C210.457 203.863 204.427 210.079 204.578 217.606C204.73 225.133 211.007 231.106 218.589 230.955C226.17 230.805 232.201 224.589 232.049 217.062C231.897 209.534 225.621 203.562 218.039 203.712Z" fill="url(#paint0_radial_2_5449)"/>
</g>
<defs>
<radialGradient id="paint0_radial_2_5449" cx="0" cy="0" r="1" gradientUnits="userSpaceOnUse" gradientTransform="translate(218.523 217.635) rotate(-44.9996) scale(239.785 241.862)">
<stop stop-color="#EA5A30" stop-opacity="0.47"/>
<stop offset="1" stop-color="#EA5A30" stop-opacity="0"/>
</radialGradient>
<clipPath id="clip0_2_5449">
<rect width="437" height="488.412" fill="white" transform="translate(0 0.529541)"/>
</clipPath>
</defs>
</svg>
