<svg width="303" height="80" viewBox="0 0 303 80" fill="none" xmlns="http://www.w3.org/2000/svg">
<path d="M40 0C17.9086 0 0 17.9086 0 40H80C80 17.9086 62.0914 0 40 0Z" fill="#C4D82E"/>
<path d="M191 0C168.909 0 151 17.9086 151 40H231C231 17.9086 213.091 0 191 0Z" fill="#C4D82E"/>
<path d="M115.556 80C95.9188 80 80 62.0914 80 40H151.111C151.111 62.0914 135.192 80 115.556 80Z" fill="#EA5A30"/>
<path d="M266.556 80C246.919 80 231 62.0914 231 40H302.111C302.111 62.0914 286.192 80 266.556 80Z" fill="#EA5A30"/>
</svg>
