<svg width="213" height="214" viewBox="0 0 213 214" fill="none" xmlns="http://www.w3.org/2000/svg">
<g clip-path="url(#clip0_2_5318)">
<path d="M423.356 2.3309C423.356 -114.469 328.672 -209.154 211.872 -209.154C95.0722 -209.154 0.387293 -114.469 0.387284 2.33087C0.387275 119.131 95.0721 213.815 211.872 213.815C328.672 213.815 423.356 119.131 423.356 2.3309Z" stroke="white" stroke-opacity="0.2" stroke-width="0.93421" stroke-miterlimit="10"/>
<path d="M408.051 2.32425C408.051 -106.031 320.211 -193.87 211.856 -193.87C103.501 -193.87 15.6623 -106.031 15.6623 2.32422C15.6623 110.679 103.501 198.518 211.856 198.518C320.211 198.518 408.051 110.679 408.051 2.32425Z" stroke="white" stroke-opacity="0.2" stroke-width="0.93421" stroke-miterlimit="10"/>
<path d="M392.76 2.32608C392.76 -97.5843 311.767 -178.578 211.857 -178.578C111.946 -178.578 30.9529 -97.5843 30.9529 2.32605C30.9529 102.236 111.946 183.23 211.857 183.23C311.767 183.23 392.76 102.236 392.76 2.32608Z" stroke="white" stroke-opacity="0.2" stroke-width="0.93421" stroke-miterlimit="10"/>
<path d="M377.47 2.32502C377.47 -89.1406 303.323 -163.288 211.857 -163.288C120.391 -163.288 46.2438 -89.1407 46.2438 2.325C46.2438 93.7907 120.391 167.938 211.857 167.938C303.323 167.938 377.47 93.7907 377.47 2.32502Z" stroke="white" stroke-opacity="0.2" stroke-width="0.93421" stroke-miterlimit="10"/>
<path d="M362.179 2.32507C362.179 -80.696 294.877 -147.998 211.856 -147.998C128.835 -147.998 61.5336 -80.696 61.5336 2.32504C61.5336 85.3461 128.835 152.648 211.856 152.648C294.877 152.648 362.179 85.3461 362.179 2.32507Z" stroke="white" stroke-opacity="0.2" stroke-width="0.93421" stroke-miterlimit="10"/>
<path d="M346.986 2.32517C346.986 -72.306 286.485 -132.806 211.854 -132.806C137.223 -132.806 76.7224 -72.306 76.7224 2.32515C76.7224 76.9563 137.223 137.457 211.854 137.457C286.485 137.457 346.986 76.9563 346.986 2.32517Z" stroke="white" stroke-opacity="0.2" stroke-width="0.93421" stroke-miterlimit="10"/>
<path d="M331.697 2.32405C331.697 -63.8624 278.043 -117.517 211.856 -117.517C145.67 -117.517 92.0148 -63.8625 92.0148 2.32403C92.0148 68.5105 145.67 122.165 211.856 122.165C278.043 122.165 331.697 68.5105 331.697 2.32405Z" stroke="white" stroke-opacity="0.2" stroke-width="0.93421" stroke-miterlimit="10"/>
<path d="M316.407 2.32522C316.407 -55.4166 269.598 -102.226 211.857 -102.226C154.115 -102.226 107.306 -55.4166 107.306 2.3252C107.306 60.067 154.115 106.876 211.857 106.876C269.598 106.876 316.407 60.067 316.407 2.32522Z" stroke="white" stroke-opacity="0.2" stroke-width="0.93421" stroke-miterlimit="10"/>
<path d="M301.117 2.32605C301.117 -46.9711 261.154 -86.9343 211.856 -86.9343C162.559 -86.9344 122.596 -46.9711 122.596 2.32603C122.596 51.6232 162.559 91.5864 211.856 91.5864C261.154 91.5864 301.117 51.6232 301.117 2.32605Z" stroke="white" stroke-opacity="0.2" stroke-width="0.93421" stroke-miterlimit="10"/>
<path d="M285.826 2.32523C285.826 -38.5272 252.709 -71.6447 211.856 -71.6447C171.004 -71.6447 137.886 -38.5273 137.886 2.32522C137.886 43.1777 171.004 76.2952 211.856 76.2952C252.709 76.2952 285.826 43.1777 285.826 2.32523Z" stroke="white" stroke-opacity="0.2" stroke-width="0.93421" stroke-miterlimit="10"/>
<path d="M270.54 1.96966C270.351 -30.4381 243.925 -56.5561 211.517 -56.3663C179.109 -56.1766 152.992 -29.7511 153.181 2.65668C153.371 35.0645 179.796 61.1824 212.204 60.9927C244.612 60.803 270.73 34.3775 270.54 1.96966Z" stroke="white" stroke-opacity="0.2" stroke-width="0.93421" stroke-miterlimit="10"/>
<path d="M255.223 1.90882C254.975 -22.0519 235.35 -41.2752 211.39 -41.0276C187.429 -40.78 168.205 -21.1553 168.453 2.80544C168.701 26.7662 188.325 45.9895 212.286 45.7419C236.247 45.4943 255.47 25.8696 255.223 1.90882Z" stroke="white" stroke-opacity="0.2" stroke-width="0.93421" stroke-miterlimit="10"/>
<path d="M239.957 1.89242C239.723 -13.6245 226.955 -26.0142 211.438 -25.7808C195.921 -25.5474 183.531 -12.7792 183.765 2.73767C183.998 18.2546 196.766 30.6443 212.283 30.4109C227.8 30.1775 240.19 17.4093 239.957 1.89242Z" stroke="white" stroke-opacity="0.2" stroke-width="0.93421" stroke-miterlimit="10"/>
<path d="M224.66 2.06685C224.519 -5.00552 218.671 -10.6242 211.599 -10.4827C204.526 -10.3413 198.908 -4.49329 199.049 2.57908C199.19 9.65145 205.038 15.2701 212.111 15.1286C219.183 14.9872 224.802 9.13922 224.66 2.06685Z" stroke="white" stroke-opacity="0.2" stroke-width="0.93421" stroke-miterlimit="10"/>
</g>
<defs>
<clipPath id="clip0_2_5318">
<rect width="423.337" height="213.509" fill="white" transform="translate(0.00201416 213.811) rotate(-90)"/>
</clipPath>
</defs>
</svg>
