<svg width="295" height="296" viewBox="0 0 295 296" fill="none" xmlns="http://www.w3.org/2000/svg">
<g opacity="0.2" clip-path="url(#clip0_2_5981)">
<g clip-path="url(#clip1_2_5981)">
<path d="M0.659902 -292.297C-161.637 -292.297 -293.205 -160.729 -293.205 1.56742C-293.205 163.864 -161.637 295.432 0.659851 295.432C162.957 295.432 294.524 163.864 294.524 1.56747C294.524 -160.729 162.957 -292.297 0.659902 -292.297Z" stroke="#304FBF" stroke-miterlimit="10"/>
<path d="M0.650774 -271.029C-149.912 -271.029 -271.967 -148.974 -271.967 1.58916C-271.967 152.152 -149.912 274.207 0.650726 274.207C151.213 274.207 273.269 152.152 273.269 1.5892C273.269 -148.974 151.214 -271.029 0.650774 -271.029Z" stroke="#304FBF" stroke-miterlimit="10"/>
<path d="M0.653257 -249.782C-138.175 -249.782 -250.718 -137.24 -250.718 1.58907C-250.718 140.418 -138.175 252.961 0.653214 252.961C139.482 252.961 252.025 140.418 252.025 1.58911C252.025 -137.24 139.482 -249.782 0.653257 -249.782Z" stroke="#304FBF" stroke-miterlimit="10"/>
<path d="M0.651636 -228.537C-126.443 -228.537 -229.473 -125.506 -229.473 1.58826C-229.473 128.683 -126.443 231.713 0.651596 231.713C127.746 231.713 230.776 128.683 230.777 1.5883C230.777 -125.506 127.746 -228.537 0.651636 -228.537Z" stroke="#304FBF" stroke-miterlimit="10"/>
<path d="M0.651709 -207.289C-114.709 -207.289 -208.227 -113.771 -208.227 1.58885C-208.227 116.949 -114.709 210.467 0.651672 210.467C116.012 210.467 209.53 116.949 209.53 1.58888C209.53 -113.771 116.012 -207.289 0.651709 -207.289Z" stroke="#304FBF" stroke-miterlimit="10"/>
<path d="M0.652056 -186.177C-103.05 -186.177 -187.118 -102.11 -187.118 1.59254C-187.118 105.295 -103.05 189.362 0.652023 189.362C104.354 189.362 188.422 105.295 188.422 1.59258C188.422 -102.11 104.354 -186.177 0.652056 -186.177Z" stroke="#304FBF" stroke-miterlimit="10"/>
<path d="M0.650481 -164.934C-91.3178 -164.934 -165.873 -90.3786 -165.873 1.58966C-165.873 93.5579 -91.3178 168.113 0.650452 168.113C92.6187 168.113 167.174 93.558 167.174 1.58969C167.174 -90.3786 92.6187 -164.934 0.650481 -164.934Z" stroke="#304FBF" stroke-miterlimit="10"/>
<path d="M0.651972 -143.688C-79.5821 -143.688 -144.625 -78.6452 -144.625 1.58886C-144.625 81.823 -79.5821 146.866 0.651947 146.866C80.886 146.866 145.929 81.823 145.929 1.58888C145.929 -78.6452 80.8861 -143.688 0.651972 -143.688Z" stroke="#304FBF" stroke-miterlimit="10"/>
<path d="M0.653075 -122.441C-67.8469 -122.441 -123.377 -66.9112 -123.377 1.58876C-123.377 70.0887 -67.8469 125.619 0.653053 125.619C69.153 125.619 124.683 70.0887 124.683 1.58878C124.683 -66.9112 69.153 -122.441 0.653075 -122.441Z" stroke="#304FBF" stroke-miterlimit="10"/>
<path d="M0.651835 -101.194C-56.114 -101.194 -102.132 -55.1765 -102.132 1.5893C-102.132 58.3551 -56.114 104.373 0.651817 104.373C57.4176 104.373 103.435 58.3551 103.435 1.58932C103.435 -55.1765 57.4177 -101.194 0.651835 -101.194Z" stroke="#304FBF" stroke-miterlimit="10"/>
<path d="M0.157734 -79.9543C-44.874 -79.6907 -81.1656 -42.9716 -80.902 2.06005C-80.6384 47.0917 -43.9193 83.3834 1.11237 83.1198C46.1441 82.8562 82.4357 46.1371 82.1721 1.10542C81.9085 -43.9262 45.1894 -80.2179 0.157734 -79.9543Z" stroke="#304FBF" stroke-miterlimit="10"/>
<path d="M0.0733951 -58.6696C-33.2208 -58.3256 -59.9322 -31.0564 -59.5882 2.23776C-59.2441 35.532 -31.9749 62.2434 1.31927 61.8993C34.6135 61.5553 61.3249 34.2861 60.9808 0.991893C60.6368 -32.3023 33.3676 -59.0137 0.0733951 -58.6696Z" stroke="#304FBF" stroke-miterlimit="10"/>
<path d="M0.0503521 -37.4571C-21.5109 -37.1327 -38.7268 -19.391 -38.4025 2.17023C-38.0781 23.7315 -20.3364 40.9474 1.22484 40.6231C22.7861 40.2987 40.002 22.557 39.6776 0.995745C39.3533 -20.5655 21.6116 -37.7814 0.0503521 -37.4571Z" stroke="#304FBF" stroke-miterlimit="10"/>
<path d="M0.292793 -16.2025C-9.53449 -16.006 -17.3418 -7.88005 -17.1452 1.94723C-16.9487 11.7745 -8.82273 19.5818 1.00456 19.3852C10.8318 19.1887 18.6391 11.0627 18.4426 1.23547C18.246 -8.59182 10.1201 -16.3991 0.292793 -16.2025Z" stroke="#304FBF" stroke-miterlimit="10"/>
</g>
</g>
<defs>
<clipPath id="clip0_2_5981">
<rect width="297.579" height="295.97" fill="white" transform="translate(-2.57886)"/>
</clipPath>
<clipPath id="clip1_2_5981">
<rect width="588.241" height="296.678" fill="white" transform="translate(294.518 295.968) rotate(-180)"/>
</clipPath>
</defs>
</svg>
