<svg width="220" height="224" viewBox="0 0 220 224" fill="none" xmlns="http://www.w3.org/2000/svg">
<g clip-path="url(#clip0_2_5335)">
<path d="M-221.197 220.729C-221.197 342.437 -122.533 441.101 -0.824415 441.101C120.884 441.101 219.548 342.437 219.548 220.729C219.548 99.0209 120.884 0.356924 -0.824371 0.356912C-122.533 0.3569 -221.197 99.0209 -221.197 220.729Z" stroke="white" stroke-opacity="0.2" stroke-width="0.973471" stroke-miterlimit="10"/>
<path d="M-205.248 220.736C-205.248 333.645 -113.717 425.175 -0.80836 425.175C112.1 425.175 203.631 333.645 203.631 220.736C203.631 107.827 112.1 16.2969 -0.808319 16.2969C-113.717 16.2968 -205.248 107.827 -205.248 220.736Z" stroke="white" stroke-opacity="0.2" stroke-width="0.973471" stroke-miterlimit="10"/>
<path d="M-189.315 220.734C-189.315 324.843 -104.918 409.24 -0.808601 409.24C103.3 409.24 187.698 324.843 187.698 220.734C187.698 116.625 103.301 32.228 -0.808563 32.228C-104.918 32.228 -189.315 116.625 -189.315 220.734Z" stroke="white" stroke-opacity="0.2" stroke-width="0.973471" stroke-miterlimit="10"/>
<path d="M-173.382 220.735C-173.382 316.045 -96.1185 393.308 -0.80901 393.308C94.5005 393.308 171.764 316.045 171.764 220.735C171.764 125.426 94.5005 48.1621 -0.808975 48.1621C-96.1185 48.1621 -173.382 125.426 -173.382 220.735Z" stroke="white" stroke-opacity="0.2" stroke-width="0.973471" stroke-miterlimit="10"/>
<path d="M-157.449 220.735C-157.449 307.245 -87.3185 377.375 -0.808503 377.375C85.7015 377.375 155.832 307.245 155.832 220.735C155.832 134.225 85.7015 64.095 -0.808472 64.095C-87.3184 64.0949 -157.449 134.225 -157.449 220.735Z" stroke="white" stroke-opacity="0.2" stroke-width="0.973471" stroke-miterlimit="10"/>
<path d="M-141.617 220.735C-141.617 298.503 -78.5735 361.546 -0.805982 361.546C76.9616 361.546 140.005 298.503 140.005 220.735C140.005 142.968 76.9616 79.9246 -0.805954 79.9245C-78.5735 79.9245 -141.617 142.968 -141.617 220.735Z" stroke="white" stroke-opacity="0.2" stroke-width="0.973471" stroke-miterlimit="10"/>
<path d="M-125.686 220.736C-125.686 289.704 -69.776 345.614 -0.808046 345.614C68.1599 345.614 124.07 289.704 124.07 220.736C124.07 151.768 68.16 95.8586 -0.808022 95.8586C-69.776 95.8586 -125.686 151.768 -125.686 220.736Z" stroke="white" stroke-opacity="0.2" stroke-width="0.973471" stroke-miterlimit="10"/>
<path d="M-109.753 220.735C-109.753 280.903 -60.9771 329.68 -0.808631 329.68C59.3598 329.68 108.136 280.903 108.136 220.735C108.136 160.567 59.3598 111.791 -0.808609 111.791C-60.977 111.791 -109.753 160.567 -109.753 220.735Z" stroke="white" stroke-opacity="0.2" stroke-width="0.973471" stroke-miterlimit="10"/>
<path d="M-93.82 220.734C-93.82 272.103 -52.1773 313.746 -0.808429 313.746C50.5604 313.746 92.2031 272.103 92.2031 220.734C92.2031 169.365 50.5604 127.723 -0.808411 127.723C-52.1773 127.723 -93.82 169.365 -93.82 220.734Z" stroke="white" stroke-opacity="0.2" stroke-width="0.973471" stroke-miterlimit="10"/>
<path d="M-77.8869 220.735C-77.8869 263.305 -43.3777 297.814 -0.808411 297.814C41.7609 297.814 76.2701 263.305 76.2701 220.735C76.2701 178.166 41.7609 143.657 -0.808395 143.657C-43.3777 143.657 -77.8869 178.166 -77.8869 220.735Z" stroke="white" stroke-opacity="0.2" stroke-width="0.973471" stroke-miterlimit="10"/>
<path d="M-61.9586 221.106C-61.7609 254.875 -34.2249 282.091 -0.455157 281.893C33.3146 281.695 60.5301 254.159 60.3324 220.39C60.1347 186.62 32.5987 159.404 -1.17104 159.602C-34.9408 159.8 -62.1563 187.336 -61.9586 221.106Z" stroke="white" stroke-opacity="0.2" stroke-width="0.973471" stroke-miterlimit="10"/>
<path d="M-45.997 221.169C-45.739 246.137 -25.2896 266.168 -0.321929 265.91C24.6458 265.652 44.6769 245.202 44.4189 220.235C44.1609 195.267 23.7115 175.236 -1.25622 175.494C-26.2239 175.752 -46.255 196.201 -45.997 221.169Z" stroke="white" stroke-opacity="0.2" stroke-width="0.973471" stroke-miterlimit="10"/>
<path d="M-30.0896 221.186C-29.8463 237.355 -16.5416 250.266 -0.372628 250.022C15.7964 249.779 28.7068 236.474 28.4636 220.305C28.2204 204.136 14.9156 191.226 -1.25339 191.469C-17.4224 191.712 -30.3328 205.017 -30.0896 221.186Z" stroke="white" stroke-opacity="0.2" stroke-width="0.973471" stroke-miterlimit="10"/>
<path d="M-14.1505 221.004C-14.0031 228.374 -7.90937 234.229 -0.539784 234.081C6.8298 233.934 12.6845 227.84 12.5371 220.471C12.3898 213.101 6.29604 207.246 -1.07354 207.394C-8.44313 207.541 -14.2979 213.635 -14.1505 221.004Z" stroke="white" stroke-opacity="0.2" stroke-width="0.973471" stroke-miterlimit="10"/>
</g>
<defs>
<clipPath id="clip0_2_5335">
<rect width="441.128" height="222.482" fill="white" transform="translate(219.949 0.361328) rotate(90)"/>
</clipPath>
</defs>
</svg>
