<svg width="509" height="509" viewBox="0 0 509 509" fill="none" xmlns="http://www.w3.org/2000/svg">
<path fill-rule="evenodd" clip-rule="evenodd" d="M254.5 1.5C394.228 1.50001 507.5 114.772 507.5 254.5C507.5 394.228 394.228 507.5 254.5 507.5C114.772 507.5 1.49999 394.228 1.5 254.5C1.50001 114.772 114.772 1.49999 254.5 1.5ZM508.5 254.5C508.5 114.22 394.78 0.500006 254.5 0.5C114.22 0.499994 0.500006 114.22 0.5 254.5C0.499994 394.78 114.22 508.5 254.5 508.5C394.78 508.5 508.5 394.78 508.5 254.5ZM254.516 19.8301C384.122 19.8301 489.188 124.896 489.188 254.502C489.188 384.108 384.122 489.174 254.516 489.174C124.911 489.174 19.8446 384.108 19.8446 254.502C19.8446 124.896 124.911 19.8301 254.516 19.8301ZM490.188 254.502C490.188 124.344 384.674 18.8301 254.516 18.8301C124.358 18.8301 18.8446 124.344 18.8446 254.502C18.8446 384.66 124.358 490.174 254.516 490.174C384.674 490.174 490.188 384.66 490.188 254.502ZM470.859 254.5C470.859 135.017 373.999 38.1566 254.515 38.1566C135.032 38.1566 38.1716 135.017 38.1716 254.5C38.1716 373.984 135.032 470.844 254.515 470.844C373.999 470.844 470.859 373.984 470.859 254.5ZM254.515 37.1566C374.551 37.1566 471.859 134.465 471.859 254.5C471.859 374.536 374.551 471.844 254.515 471.844C134.48 471.844 37.1716 374.536 37.1716 254.5C37.1716 134.465 134.48 37.1566 254.515 37.1566ZM254.516 56.4843C363.877 56.4843 452.532 145.139 452.532 254.5C452.532 363.861 363.877 452.515 254.516 452.515C145.155 452.515 56.5008 363.861 56.5008 254.5C56.5008 145.139 145.155 56.4842 254.516 56.4843ZM453.532 254.5C453.532 144.587 364.43 55.4843 254.516 55.4843C144.603 55.4842 55.5008 144.587 55.5008 254.5C55.5008 364.413 144.603 453.515 254.516 453.515C364.43 453.515 453.532 364.413 453.532 254.5ZM434.202 254.501C434.202 155.262 353.754 74.8131 254.515 74.8131C155.277 74.8131 74.8278 155.262 74.8278 254.501C74.8278 353.739 155.277 434.188 254.515 434.188C353.754 434.188 434.202 353.739 434.202 254.501ZM254.515 73.8131C354.306 73.8131 435.202 154.71 435.202 254.501C435.202 354.291 354.306 435.188 254.515 435.188C154.724 435.188 73.8278 354.291 73.8278 254.501C73.8278 154.71 154.724 73.8131 254.515 73.8131ZM254.516 93.0206C343.698 93.0206 415.994 165.317 415.994 254.499C415.994 343.681 343.698 415.977 254.516 415.977C165.334 415.977 93.0378 343.681 93.0378 254.499C93.0378 165.317 165.334 93.0206 254.516 93.0206ZM416.994 254.499C416.994 164.765 344.25 92.0206 254.516 92.0206C164.782 92.0206 92.0378 164.765 92.0378 254.499C92.0378 344.233 164.782 416.977 254.516 416.977C344.25 416.977 416.994 344.233 416.994 254.499ZM397.665 254.501C397.665 175.441 333.575 111.351 254.515 111.351C175.456 111.351 111.365 175.441 111.365 254.501C111.365 333.56 175.456 397.651 254.515 397.651C333.575 397.651 397.665 333.56 397.665 254.501ZM254.515 110.351C334.127 110.351 398.665 174.889 398.665 254.501C398.665 334.113 334.127 398.651 254.515 398.651C174.903 398.651 110.365 334.113 110.365 254.501C110.365 174.889 174.903 110.351 254.515 110.351ZM254.517 129.677C323.454 129.677 379.338 185.561 379.338 254.498C379.338 323.436 323.454 379.32 254.517 379.32C185.579 379.32 129.695 323.436 129.695 254.498C129.695 185.561 185.579 129.677 254.517 129.677ZM380.338 254.498C380.338 185.009 324.006 128.677 254.517 128.677C185.027 128.677 128.695 185.009 128.695 254.498C128.695 323.988 185.027 380.32 254.517 380.32C324.006 380.32 380.338 323.988 380.338 254.498ZM361.01 254.5C361.01 195.685 313.331 148.006 254.516 148.006C195.701 148.006 148.022 195.685 148.022 254.5C148.022 313.315 195.701 360.993 254.516 360.993C313.331 360.993 361.01 313.315 361.01 254.5ZM254.516 147.006C313.883 147.006 362.01 195.133 362.01 254.5C362.01 313.867 313.883 361.993 254.516 361.993C195.149 361.993 147.022 313.867 147.022 254.5C147.022 195.133 195.149 147.006 254.516 147.006ZM254.516 166.335C303.208 166.335 342.681 205.809 342.681 254.501C342.681 303.193 303.208 342.666 254.516 342.666C205.823 342.666 166.35 303.193 166.35 254.501C166.35 205.808 205.823 166.335 254.516 166.335ZM343.681 254.501C343.681 205.256 303.76 165.335 254.516 165.335C205.271 165.335 165.35 205.256 165.35 254.501C165.35 303.746 205.271 343.666 254.516 343.666C303.76 343.666 343.681 303.746 343.681 254.501ZM324.346 254.106C324.12 215.535 292.67 184.451 254.1 184.677C215.53 184.903 184.445 216.353 184.671 254.923C184.897 293.493 216.347 324.577 254.917 324.352C293.487 324.126 324.572 292.676 324.346 254.106ZM254.094 183.677C293.216 183.448 325.117 214.977 325.346 254.1C325.575 293.222 294.046 325.123 254.923 325.352C215.801 325.581 183.9 294.051 183.671 254.929C183.442 215.807 214.972 183.906 254.094 183.677ZM254.004 202.957C282.449 202.663 305.747 225.484 306.041 253.929C306.335 282.374 283.514 305.671 255.069 305.965C226.624 306.259 203.327 283.438 203.033 254.993C202.739 226.548 225.56 203.251 254.004 202.957ZM307.041 253.919C306.741 224.921 282.991 201.657 253.994 201.957C224.997 202.257 201.733 226.006 202.033 255.004C202.332 284.001 226.082 307.265 255.079 306.965C284.076 306.665 307.34 282.916 307.041 253.919ZM287.689 254.013C287.413 235.689 272.335 221.059 254.012 221.334C235.688 221.61 221.058 236.687 221.333 255.011C221.609 273.334 236.686 287.965 255.01 287.689C273.333 287.414 287.964 272.336 287.689 254.013ZM253.997 220.334C272.873 220.05 288.405 235.122 288.688 253.998C288.972 272.873 273.901 288.405 255.025 288.689C236.149 288.973 220.617 273.902 220.333 255.026C220.049 236.15 235.121 220.618 253.997 220.334ZM254.219 239.652C262.421 239.487 269.202 246.003 269.366 254.204C269.53 262.406 263.015 269.187 254.813 269.351C246.612 269.515 239.831 263 239.667 254.798C239.503 246.597 246.018 239.816 254.219 239.652ZM270.366 254.184C270.191 245.431 262.953 238.477 254.199 238.652C245.446 238.827 238.492 246.065 238.667 254.818C238.842 263.572 246.08 270.526 254.833 270.351C263.587 270.176 270.541 262.938 270.366 254.184Z" fill="url(#paint0_radial_2_5265)"/>
<defs>
<radialGradient id="paint0_radial_2_5265" cx="0" cy="0" r="1" gradientUnits="userSpaceOnUse" gradientTransform="translate(254.5 254.5) rotate(90) scale(254)">
<stop stop-color="#C4D82E"/>
<stop offset="1" stop-color="#C4D82E" stop-opacity="0"/>
</radialGradient>
</defs>
</svg>
