<svg width="16" height="16" viewBox="0 0 16 16" fill="none" xmlns="http://www.w3.org/2000/svg">
<circle cx="8" cy="8" r="8" fill="#EA5A30"/>
<circle cx="8" cy="8" r="7.75" stroke="white" stroke-opacity="0.8" stroke-width="0.5"/>
<path d="M5.60313 11.072C4.95779 11.072 4.46713 10.824 4.13113 10.328C3.79513 9.832 3.62713 9.11467 3.62713 8.176C3.62713 7.232 3.79513 6.51467 4.13113 6.024C4.46713 5.53333 4.95779 5.288 5.60313 5.288C6.25379 5.288 6.74446 5.53333 7.07513 6.024C7.41113 6.50933 7.57913 7.224 7.57913 8.168C7.57913 9.112 7.40846 9.832 7.06713 10.328C6.73113 10.824 6.24313 11.072 5.60313 11.072ZM5.60313 10.504C6.05113 10.504 6.38179 10.3147 6.59513 9.936C6.81379 9.55733 6.92313 8.968 6.92313 8.168C6.92313 7.368 6.81646 6.784 6.60313 6.416C6.38979 6.04267 6.05646 5.856 5.60313 5.856C5.15513 5.856 4.82179 6.04267 4.60313 6.416C4.38979 6.78933 4.28313 7.37333 4.28313 8.168C4.28313 8.968 4.38979 9.55733 4.60313 9.936C4.82179 10.3147 5.15513 10.504 5.60313 10.504ZM10.336 11.072C9.96267 11.072 9.608 11.016 9.272 10.904C8.936 10.7867 8.65333 10.6187 8.424 10.4L8.664 9.88C8.92533 10.0933 9.18933 10.248 9.456 10.344C9.72267 10.44 10.0107 10.488 10.32 10.488C10.7253 10.488 11.0347 10.4 11.248 10.224C11.4667 10.0427 11.576 9.77867 11.576 9.432C11.576 9.10133 11.4667 8.85067 11.248 8.68C11.0293 8.50933 10.712 8.424 10.296 8.424H9.464V7.856H10.24C10.6027 7.856 10.888 7.76267 11.096 7.576C11.3093 7.384 11.416 7.12267 11.416 6.792C11.416 6.49867 11.3173 6.272 11.12 6.112C10.928 5.952 10.6533 5.872 10.296 5.872C9.70933 5.872 9.19733 6.08533 8.76 6.512L8.52 6C8.728 5.776 8.992 5.60267 9.312 5.48C9.63733 5.352 9.97867 5.288 10.336 5.288C10.88 5.288 11.304 5.416 11.608 5.672C11.9173 5.928 12.072 6.28267 12.072 6.736C12.072 7.05067 11.992 7.328 11.832 7.568C11.672 7.80267 11.4507 7.97333 11.168 8.08C11.504 8.17067 11.7653 8.33867 11.952 8.584C12.1387 8.824 12.232 9.12267 12.232 9.48C12.232 9.96533 12.0613 10.352 11.72 10.64C11.384 10.928 10.9227 11.072 10.336 11.072Z" fill="white" fill-opacity="0.8"/>
</svg>
